<svg preserveAspectRatio="none" width="100%" height="100%" overflow="visible" style="display: block;" viewBox="0 0 18.596 16.596" fill="none" xmlns="http://www.w3.org/2000/svg">
<path id="icon" d="M9.298 13.3125C10.4237 13.3125 11.3762 12.9236 12.1557 12.1457C12.9352 11.3681 13.325 10.4147 13.325 9.2855C13.325 8.163 12.9352 7.21208 12.1557 6.43275C11.3762 5.65325 10.4237 5.2635 9.298 5.2635C8.17233 5.2635 7.22058 5.65325 6.44275 6.43275C5.66492 7.21208 5.276 8.163 5.276 9.2855C5.276 10.4147 5.66492 11.3681 6.44275 12.1457C7.22058 12.9236 8.17233 13.3125 9.298 13.3125ZM9.29425 11.9135C8.55192 11.9135 7.92975 11.6614 7.42775 11.1572C6.92592 10.6531 6.675 10.0308 6.675 9.2905C6.675 8.55033 6.926 7.92725 7.428 7.42125C7.93017 6.91542 8.55258 6.6625 9.29525 6.6625C10.0381 6.6625 10.6622 6.91542 11.1677 7.42125C11.6732 7.92725 11.926 8.55033 11.926 9.2905C11.926 10.0308 11.673 10.6531 11.167 11.1572C10.661 11.6614 10.0368 11.9135 9.29425 11.9135ZM1.7045 16.596C1.232 16.596 0.82975 16.4301 0.49775 16.0982C0.165917 15.7662 0 15.3637 0 14.8907V3.69275C0 3.21975 0.165917 2.81725 0.49775 2.48525C0.82975 2.15342 1.23275 1.9875 1.70675 1.9875H4.7605L6.0605 0.5625C6.21533 0.386167 6.40333 0.248332 6.6245 0.148999C6.84567 0.0496657 7.08108 0 7.33075 0H11.27C11.5157 0 11.7493 0.0496657 11.971 0.148999C12.1925 0.248332 12.3822 0.386167 12.5402 0.5625L13.8355 1.9875H16.8893C17.3633 1.9875 17.7663 2.15342 18.0983 2.48525C18.4301 2.81725 18.596 3.21975 18.596 3.69275V14.8907C18.596 15.3637 18.4301 15.7662 18.0983 16.0982C17.7663 16.4301 17.364 16.596 16.8915 16.596H1.7045ZM1.70675 15.197H16.8893C16.9791 15.197 17.0528 15.1682 17.1105 15.1105C17.1682 15.0528 17.197 14.9791 17.197 14.8892V3.69425C17.197 3.60758 17.1682 3.53467 17.1105 3.4755C17.0528 3.41617 16.9791 3.3865 16.8893 3.3865H13.215L11.4025 1.399H7.19975L5.38925 3.3865H1.70675C1.61692 3.3865 1.54317 3.41617 1.4855 3.4755C1.42783 3.53467 1.399 3.60758 1.399 3.69425V14.8892C1.399 14.9791 1.42783 15.0528 1.4855 15.1105C1.54317 15.1682 1.61692 15.197 1.70675 15.197Z" fill="var(--fill-0, #121621)"/>
</svg>
